<!-- TracAdemics Logo Small SVG -->
<svg viewBox="0 0 100 100" xmlns="http://www.w3.org/2000/svg">
  <!-- Background Circle -->
  <circle cx="50" cy="50" r="50" fill="#22C55E"/>
  
  <!-- Monitor/Computer Screen -->
  <g transform="translate(20, 25)">
    <!-- Screen Frame -->
    <rect x="0" y="0" width="60" height="42" rx="4" ry="4" fill="#16A34A" stroke="#15803D" stroke-width="2"/>
    
    <!-- Screen Display -->
    <rect x="4" y="4" width="52" height="34" rx="2" ry="2" fill="#1F2937"/>
    
    <!-- Screen Content -->
    <g transform="translate(12, 10)">
      <!-- List Lines -->
      <rect x="0" y="2" width="14" height="2" rx="1" fill="#22C55E"/>
      <rect x="0" y="7" width="10" height="2" rx="1" fill="#22C55E"/>
      <rect x="0" y="12" width="12" height="2" rx="1" fill="#22C55E"/>
      
      <!-- Chain Link -->
      <g transform="translate(18, 0)">
        <path d="M2 7 Q7 2 12 7 Q17 12 12 17 Q7 22 2 17" stroke="#22C55E" stroke-width="1.5" fill="none" stroke-linecap="round"/>
        <path d="M7 12 Q12 7 17 12" stroke="#22C55E" stroke-width="1.5" fill="none" stroke-linecap="round"/>
      </g>
      
      <!-- Checkmark -->
      <g transform="translate(28, 3)">
        <rect x="0" y="0" width="10" height="10" rx="2" fill="#22C55E"/>
        <path d="M2.5 5 L4.5 7 L7.5 3" stroke="#1F2937" stroke-width="1" fill="none" stroke-linecap="round" stroke-linejoin="round"/>
      </g>
    </g>
    
    <!-- Monitor Stand -->
    <rect x="25" y="42" width="10" height="7" fill="#16A34A"/>
    <rect x="20" y="49" width="20" height="4" rx="2" fill="#16A34A"/>
  </g>
</svg>
