<!-- TracAdemics Logo SVG -->
<svg viewBox="0 0 512 512" xmlns="http://www.w3.org/2000/svg">
  <!-- Background Circle -->
  <circle cx="256" cy="256" r="256" fill="#22C55E"/>
  
  <!-- Monitor/Computer Screen -->
  <g transform="translate(128, 140)">
    <!-- Screen Frame -->
    <rect x="0" y="0" width="256" height="180" rx="20" ry="20" fill="#16A34A" stroke="#15803D" stroke-width="8"/>
    
    <!-- Screen Display -->
    <rect x="20" y="20" width="216" height="140" rx="10" ry="10" fill="#1F2937"/>
    
    <!-- Screen Content - Link/Chain Icon -->
    <g transform="translate(60, 45)">
      <!-- List Lines -->
      <rect x="0" y="10" width="60" height="8" rx="4" fill="#22C55E"/>
      <rect x="0" y="30" width="40" height="8" rx="4" fill="#22C55E"/>
      <rect x="0" y="50" width="50" height="8" rx="4" fill="#22C55E"/>
      
      <!-- Chain/Link -->
      <g transform="translate(80, 0)">
        <path d="M10 30 Q30 10 50 30 Q70 50 50 70 Q30 90 10 70" stroke="#22C55E" stroke-width="6" fill="none" stroke-linecap="round"/>
        <path d="M30 50 Q50 30 70 50" stroke="#22C55E" stroke-width="6" fill="none" stroke-linecap="round"/>
      </g>
      
      <!-- Checkmark -->
      <g transform="translate(120, 15)">
        <rect x="0" y="0" width="40" height="40" rx="8" fill="#22C55E"/>
        <path d="M10 20 L18 28 L30 12" stroke="#1F2937" stroke-width="4" fill="none" stroke-linecap="round" stroke-linejoin="round"/>
      </g>
    </g>
    
    <!-- Monitor Stand -->
    <rect x="108" y="180" width="40" height="30" fill="#16A34A"/>
    <rect x="88" y="210" width="80" height="15" rx="7" fill="#16A34A"/>
  </g>
</svg>
